<svg
   xmlns:dc="http://purl.org/dc/elements/1.1/"
   xmlns:cc="http://creativecommons.org/ns#"
   xmlns:rdf="http://www.w3.org/1999/02/22-rdf-syntax-ns#"
   xmlns:svg="http://www.w3.org/2000/svg"
   xmlns="http://www.w3.org/2000/svg"
   viewBox="0 0 384 384"
   height="384"
   width="384"
   xml:space="preserve"
   id="svg2"
   version="1.1"><metadata
     id="metadata8"><rdf:RDF><cc:Work
         rdf:about=""><dc:format>image/svg+xml</dc:format><dc:type
           rdf:resource="http://purl.org/dc/dcmitype/StillImage" /></cc:Work></rdf:RDF></metadata><defs
     id="defs6"><clipPath
       id="clipPath18"
       clipPathUnits="userSpaceOnUse"><path
         id="path16"
         d="M 0,288 H 288 V 0 H 0 Z" /></clipPath></defs><g
     transform="matrix(1.3333333,0,0,-1.3333333,0,384)"
     id="g10"><g
       id="g12"><g
         clip-path="url(#clipPath18)"
         id="g14"><g
           transform="translate(126.6763,133.0176)"
           id="g20"><path
             id="path22"
             style="fill:#ffffff;fill-opacity:1;fill-rule:nonzero;stroke:none"
             d="m 0,0 c 4.392,0 8.806,1.724 13.52,5.179 5.514,3.857 10.476,7.166 10.482,7.173 l 1.691,1.127 -1.668,1.156 c -0.74,0.519 -74.218,51.506 -81.825,56.394 -3.509,2.549 -7.529,3.095 -10.751,1.453 -2.999,-1.529 -4.723,-4.682 -4.723,-8.655 V 46.513 l 0.595,-0.412 C -72.169,45.748 -21.672,10.624 -11.822,4.054 -7.766,1.354 -3.893,0 0,0" /></g><g
           transform="translate(225.1953,163.5269)"
           id="g24"><path
             id="path26"
             style="fill:#ffffff;fill-opacity:1;fill-rule:nonzero;stroke:none"
             d="m 0,0 c -4.396,3.291 -162.016,113.152 -168.724,117.826 l -2.171,1.516 V 92.359 c 0,-8.585 4.488,-11.834 10.174,-15.95 0,0 120.909,-84.263 135.898,-94.665 -15.091,-10.46 -128.87,-89.356 -136.052,-93.969 -8.611,-5.735 -9.465,-9.456 -9.465,-17.191 v -28.979 c 0,0 166.657,119.261 170.313,121.873 L 0,-36.506 c 7.589,5.699 9.322,12.515 9.398,17.354 l 0.004,3.112 C 9.402,-9.765 6.228,-4.361 0,0" /></g></g></g></g></svg>